<?xml version="1.0" encoding="UTF-8" standalone="no"?>
<!DOCTYPE svg PUBLIC "-//W3C//DTD SVG 1.1//EN" "http://www.w3.org/Graphics/SVG/1.1/DTD/svg11.dtd">
<svg width="100%" height="100%" viewBox="0 0 110 110" version="1.1" xmlns="http://www.w3.org/2000/svg" xmlns:xlink="http://www.w3.org/1999/xlink" xml:space="preserve" xmlns:serif="http://www.serif.com/" style="fill-rule:evenodd;clip-rule:evenodd;stroke-linejoin:round;stroke-miterlimit:2;">
    <g transform="matrix(1,0,0,1,-2231.55,-2034.95)">
        <g transform="matrix(0.853981,0.853981,-0.83677,0.83677,2699.53,-506.465)">
            <path d="M1271.63,1804.81L1221.77,1804.81C1219.99,1804.81 1218.55,1803.33 1218.55,1801.51L1218.55,1794.93C1218.55,1793.11 1219.99,1791.63 1221.77,1791.63L1271.63,1791.63L1271.63,1740.75C1271.63,1738.93 1273.07,1737.46 1274.86,1737.46L1281.31,1737.46C1283.09,1737.46 1284.54,1738.93 1284.54,1740.75L1284.54,1791.63L1334.39,1791.63C1336.17,1791.63 1337.62,1793.11 1337.62,1794.93L1337.62,1801.51C1337.62,1803.33 1336.17,1804.81 1334.39,1804.81L1284.54,1804.81L1284.54,1855.69C1284.54,1857.51 1283.09,1858.98 1281.31,1858.98L1274.86,1858.98C1273.07,1858.98 1271.63,1857.51 1271.63,1855.69L1271.63,1804.81Z" style="fill:rgb(143,143,143);"/>
        </g>
    </g>
</svg>
