<?xml version="1.0" encoding="UTF-8" standalone="no"?>
<!DOCTYPE svg PUBLIC "-//W3C//DTD SVG 1.1//EN" "http://www.w3.org/Graphics/SVG/1.1/DTD/svg11.dtd">
<svg width="100%" height="100%" viewBox="0 0 113 113" version="1.1" xmlns="http://www.w3.org/2000/svg" xmlns:xlink="http://www.w3.org/1999/xlink" xml:space="preserve" xmlns:serif="http://www.serif.com/" style="fill-rule:evenodd;clip-rule:evenodd;stroke-linejoin:round;stroke-miterlimit:2;">
    <g transform="matrix(1,0,0,1,-1723.88,-2033.33)">
        <g transform="matrix(0.933268,0,0,0.933268,125.89,402.59)">
            <path d="M1833.02,1750.6L1833.02,1864.87C1833.02,1866.66 1831.56,1868.12 1829.77,1868.12L1715.5,1868.12C1713.7,1868.12 1712.25,1866.66 1712.25,1864.87L1712.25,1750.6C1712.25,1748.8 1713.7,1747.35 1715.5,1747.35L1829.77,1747.35C1831.56,1747.35 1833.02,1748.8 1833.02,1750.6ZM1816.32,1766.4C1816.32,1765.11 1815.26,1764.05 1813.97,1764.05L1731.3,1764.05C1730.01,1764.05 1728.95,1765.11 1728.95,1766.4L1728.95,1849.06C1728.95,1850.36 1730.01,1851.41 1731.3,1851.41L1813.97,1851.41C1815.26,1851.41 1816.32,1850.36 1816.32,1849.06L1816.32,1766.4Z" style="fill:rgb(143,143,143);"/>
        </g>
    </g>
</svg>
